<svg viewBox="0 0 589 589" xmlns="http://www.w3.org/2000/svg"><g fill="#fff"><path d="m293.52 87.47c67.26 0 75.23.26 101.79 1.47 24.57 1.12 37.91 5.22 46.78 8.67a83.43 83.43 0 0 1 47.81 47.81c3.45 8.88 7.56 22.22 8.68 46.78 1.21 26.57 1.47 34.53 1.47 101.8s-.26 75.23-1.47 101.8c-1.12 24.56-5.23 37.9-8.68 46.78a83.43 83.43 0 0 1 -47.81 47.81c-8.87 3.45-22.21 7.55-46.78 8.67-26.56 1.21-34.52 1.47-101.79 1.47s-75.24-.26-101.8-1.47c-24.56-1.12-37.9-5.22-46.78-8.67a83.51 83.51 0 0 1 -47.81-47.81c-3.45-8.88-7.55-22.22-8.67-46.78-1.22-26.57-1.46-34.53-1.46-101.8s.25-75.23 1.47-101.8c1.12-24.56 5.22-37.9 8.67-46.78a83.43 83.43 0 0 1 47.81-47.81c8.88-3.45 22.22-7.55 46.78-8.67 26.56-1.21 34.53-1.47 101.8-1.47m0-45.39c-68.42 0-77 .29-103.87 1.52s-45.13 5.48-61.15 11.7a128.85 128.85 0 0 0 -73.69 73.7c-6.23 16-10.48 34.34-11.71 61.15s-1.51 35.43-1.51 103.85.29 77 1.51 103.87 5.48 45.13 11.71 61.13a128.8 128.8 0 0 0 73.68 73.67c16 6.23 34.34 10.49 61.15 11.71s35.45 1.52 103.87 1.52 77-.29 103.86-1.52 45.13-5.48 61.15-11.71a128.8 128.8 0 0 0 73.68-73.67c6.23-16 10.49-34.34 11.71-61.15s1.52-35.45 1.52-103.87-.29-77-1.52-103.87-5.48-45.11-11.71-61.11a128.85 128.85 0 0 0 -73.68-73.7c-16-6.22-34.33-10.48-61.15-11.7s-35.45-1.52-103.86-1.52z"/><path d="m293.52 164.64a129.36 129.36 0 1 0 129.36 129.36 129.36 129.36 0 0 0 -129.36-129.36zm0 213.33a84 84 0 1 1 84-84 84 84 0 0 1 -84 84.03z"/><circle cx="427.99" cy="159.52" r="30.23"/></g></svg>