<svg viewBox="0 0 589 589" xmlns="http://www.w3.org/2000/svg"><path d="m535 145.3a197.12 197.12 0 0 1 -56.67 15.54 98.93 98.93 0 0 0 43.38-54.59 197.16 197.16 0 0 1 -62.71 23.95 98.77 98.77 0 0 0 -168.14 90 280.15 280.15 0 0 1 -203.34-103.08 98.78 98.78 0 0 0 30.53 131.73 98.19 98.19 0 0 1 -44.7-12.33v1.24a98.73 98.73 0 0 0 79.15 96.75 98.27 98.27 0 0 1 -26 3.46 99.68 99.68 0 0 1 -18.57-1.74 98.77 98.77 0 0 0 92.16 68.52 198.82 198.82 0 0 1 -146.09 40.85 279.27 279.27 0 0 0 151.26 44.4c181.48 0 280.74-150.4 280.74-280.79 0-4.29-.09-8.53-.3-12.77a201.07 201.07 0 0 0 49.3-51.14z" fill="#fff"/></svg>