<svg id="Layer_1" data-name="Layer 1" xmlns="http://www.w3.org/2000/svg" viewBox="0 0 281.5 45.37"><defs><style>.cls-1{fill:#fff;}.cls-2{fill:#bcbec0;}.cls-3{fill:#ffcd00;}</style></defs><title>eo-logo</title><path class="cls-1" d="M108.27.91h23.28V5.73H115.72v7h14.82v4.83H115.72v8h16.36v4.91H108.27Z" transform="translate(-0.5 -0.91)"/><path class="cls-1" d="M150.89,1h7.16V27.11a29.57,29.57,0,0,0,.2,3.36H151l-.19-3a5.83,5.83,0,0,1-2.46,2.33,9.72,9.72,0,0,1-4.71,1.07c-6.49,0-10.34-3.81-10.34-10.27,0-6.82,4.38-11.08,10.72-11.08,4.38,0,6.21,2.09,6.84,2.82Zm-5.44,26A5.29,5.29,0,0,0,150,24.62a9.58,9.58,0,0,0,1.16-4.87c0-4-2.07-6.25-5.3-6.25-4.76,0-5.29,4.86-5.29,7C140.54,23.88,141.89,27,145.45,27Z" transform="translate(-0.5 -0.91)"/><path class="cls-1" d="M162,13.7a36.24,36.24,0,0,0-.24-3.88h6.87l.24,2.66c.77-.9,2.65-3.11,7.51-3.11,5.58,0,7.17,2.9,7.65,3.88,2-3.31,5.29-3.84,7.79-3.84,4.91,0,6.88,2.49,7.41,3.31,1.3,1.8,1.2,4.3,1.2,6.09V30.47h-7.17V18.32c0-2.2-.38-4.66-4.09-4.66-4.28,0-4.37,3.4-4.37,6.46V30.47h-7.17V18.2c0-1.59-.05-4.54-4-4.54-4.48,0-4.48,3.27-4.48,4.66V30.47H162Z" transform="translate(-0.5 -0.91)"/><path class="cls-1" d="M211.78,9.82V22.13c0,1.79,0,4.53,3.8,4.53,4.57,0,4.57-2.9,4.57-6.41V9.82h7.31V23.43c.09,4.46.14,5,.14,5.52s.1.94.19,1.52h-6.92l-.24-2.74c-.72.9-2.55,3.27-7.17,3.27a10,10,0,0,1-7.31-2.78c-1.59-1.68-1.59-4.54-1.59-5.56V9.82Z" transform="translate(-0.5 -0.91)"/><path class="cls-1" d="M231.88,13.5c0-.08,0-2.33-.14-3.76h6.83l.19,3.1c.67-.94,2.6-3.59,7.89-3.59,4.76,0,6.78,2.45,7.41,3.88.52,1.27.67,2.33.67,6.18V30.47h-7.26V17.63a4.21,4.21,0,0,0-.39-2.25,3.82,3.82,0,0,0-3.46-1.76,4.73,4.73,0,0,0-3.71,1.6,5,5,0,0,0-.86,3.14V30.47h-7.17Z" transform="translate(-0.5 -0.91)"/><path class="cls-1" d="M274.83,1H282V30.47h-7l-.2-3a5.86,5.86,0,0,1-2.45,2.33,9.72,9.72,0,0,1-4.71,1.07c-6.5,0-10.34-3.81-10.34-10.27,0-6.82,4.37-11.08,10.72-11.08,4.38,0,6.21,2.09,6.83,2.82ZM269.4,27a5.29,5.29,0,0,0,4.52-2.33,9.55,9.55,0,0,0,1.15-4.87c0-4-2.06-6.25-5.29-6.25-4.76,0-5.29,4.86-5.29,7C264.49,23.88,265.84,27,269.4,27Z" transform="translate(-0.5 -0.91)"/><path class="cls-1" d="M113.59,44c-4.79,0-5.32-1-5.32-2.18V40c0-1.19.53-2.17,5.32-2.17s5.31,1,5.31,2.17v1.82C118.9,43,118.37,44,113.59,44Zm2.47-3.8c0-.77-.21-1.26-2.47-1.26s-2.5.49-2.5,1.26v1.42c0,.78.23,1.27,2.5,1.27s2.47-.49,2.47-1.27Z" transform="translate(-0.5 -0.91)"/><path class="cls-1" d="M132.55,41.88c0,1.23-.73,2.16-4.28,2.16-1.89,0-3-.31-3.51-.81v3.05h-2.84V37.94h2.56l.2.74c.49-.5,1.72-.81,3.59-.81,3.55,0,4.28.92,4.28,2.16Zm-5-2.85c-2,0-2.81.38-2.81,1.55v.76c0,1.16.79,1.54,2.81,1.54,1.65,0,2.14-.33,2.14-1.19V40.21C129.71,39.35,129.22,39,127.57,39Z" transform="translate(-0.5 -0.91)"/><path class="cls-1" d="M140.53,44c-3.21,0-4.43-.59-4.43-2V39.13h-1.36V37.94h1.36V36.48h2.84v1.46h4.23v1.19H139v2.81c0,.69.62.91,2.28.91.72,0,1.17,0,1.89-.06v1.09A17.88,17.88,0,0,1,140.53,44Z" transform="translate(-0.5 -0.91)"/><path class="cls-1" d="M146.08,37.13v-1.5h2.84v1.5Zm0,6.83v-6h2.84v6Z" transform="translate(-0.5 -0.91)"/><path class="cls-1" d="M157.31,44c-4.78,0-5.31-1-5.31-2.18V40c0-1.19.53-2.17,5.31-2.17s5.32,1,5.32,2.17v.24h-2.84v0c0-.77-.22-1.26-2.48-1.26s-2.5.49-2.5,1.26v1.42c0,.78.24,1.27,2.5,1.27s2.48-.49,2.48-1.27v-.08h2.84v.28C162.63,43,162.09,44,157.31,44Z" transform="translate(-0.5 -0.91)"/><path class="cls-1" d="M176,42.16c0,1.32-1.51,1.89-5.35,1.89-4.31,0-5.2-.62-5.2-1.7v-.16h2.82v0c0,.46.39.71,2.38.71,2.2,0,2.54-.26,2.54-.74s-.34-.55-1.06-.57l-3.43-.14c-2.48-.1-3.25-.73-3.25-1.74,0-1.3,1.53-1.87,5.36-1.87,4.2,0,5.07.61,5.07,1.7v.16h-2.83v0c0-.46-.32-.71-2.24-.71-2.21,0-2.52.26-2.52.74s.33.53,1,.57l3.45.14C175.37,40.54,176,41.05,176,42.16Z" transform="translate(-0.5 -0.91)"/><path class="cls-1" d="M198.71,37.94v3.94c0,.82.26,1.4,2,1.4s2-.58,2-1.4V37.94H204V42c0,1.14-.54,2-3.3,2a3.81,3.81,0,0,1-2.63-.84,3.84,3.84,0,0,1-2.64.84c-2.76,0-3.29-.89-3.29-2V37.94h1.3v3.94c0,.82.29,1.4,2,1.4s2-.58,2-1.4V37.94Z" transform="translate(-0.5 -0.91)"/><path class="cls-1" d="M211.19,44c-3.46,0-3.88-.89-3.88-2V39.89c0-1.14.42-2,3.88-2s3.87.88,3.87,2V42C215.06,43.15,214.65,44,211.19,44Zm2.57-4c0-.84-.15-1.42-2.57-1.42s-2.58.58-2.58,1.42v1.87c0,.84.18,1.41,2.58,1.41s2.57-.57,2.57-1.41Z" transform="translate(-0.5 -0.91)"/><path class="cls-1" d="M222.21,38.63c-1.79,0-2.45.44-2.45,1.51V44h-1.3v-6h1.11l.17.7a3.51,3.51,0,0,1,2.69-.77,6.29,6.29,0,0,1,1.63.17v.8A7,7,0,0,0,222.21,38.63Z" transform="translate(-0.5 -0.91)"/><path class="cls-1" d="M227.25,44V35.63h1.32V44Z" transform="translate(-0.5 -0.91)"/><path class="cls-1" d="M232,40c0-1.18.49-2.09,3.56-2.09,1.49,0,2.34.31,2.72.77v-3h1.3V44h-1.11l-.19-.7c-.29.38-1.07.78-2.72.78-3.07,0-3.56-.91-3.56-2.1Zm3.78,3.28c2.26,0,2.5-.5,2.5-1.48V40.14c0-1-.24-1.47-2.5-1.47s-2.48.5-2.48,1.47v1.62C233.32,42.74,233.55,43.24,235.8,43.24Z" transform="translate(-0.5 -0.91)"/><path class="cls-1" d="M249.66,37.94v3.94c0,.82.26,1.4,2,1.4s2-.58,2-1.4V37.94H255V42c0,1.14-.54,2-3.3,2A3.81,3.81,0,0,1,249,43.2a3.84,3.84,0,0,1-2.64.84c-2.75,0-3.29-.89-3.29-2V37.94h1.3v3.94c0,.82.29,1.4,2,1.4s2-.58,2-1.4V37.94Z" transform="translate(-0.5 -0.91)"/><path class="cls-1" d="M258.49,37.1v-.93h1.3v.93Zm0,6.86v-6h1.3v6Z" transform="translate(-0.5 -0.91)"/><path class="cls-1" d="M263.24,40c0-1.18.48-2.09,3.55-2.09,1.5,0,2.34.31,2.73.77v-3h1.3V44h-1.11l-.19-.7c-.3.38-1.08.78-2.73.78-3.07,0-3.55-.91-3.55-2.1ZM267,43.24c2.25,0,2.5-.5,2.5-1.48V40.14c0-1-.25-1.47-2.5-1.47s-2.48.5-2.48,1.47v1.62C264.54,42.74,264.76,43.24,267,43.24Z" transform="translate(-0.5 -0.91)"/><path class="cls-1" d="M278.1,44c-3.43,0-3.88-.89-3.88-2V39.9c0-1.13.45-2,3.88-2s3.87.9,3.87,2v1.29h-6.45v.7c0,.84.21,1.41,2.58,1.41s2.55-.56,2.57-1.22H282C282,43.13,281.53,44,278.1,44Zm0-5.44c-2.37,0-2.58.59-2.58,1.43v.41h5.15V40C280.67,39.19,280.48,38.6,278.1,38.6Z" transform="translate(-0.5 -0.91)"/><rect class="cls-2" x="182.85" y="35.29" width="1.34" height="9.35"/><path class="cls-3" d="M93.86,4.93a2.35,2.35,0,0,1-3.33,0,2.27,2.27,0,0,1-.68-1.67,2.24,2.24,0,0,1,.69-1.67,2.37,2.37,0,0,1,3.32,0,2.28,2.28,0,0,1,.69,1.67A2.28,2.28,0,0,1,93.86,4.93Zm-3.1-3.11a2,2,0,0,0-.59,1.44,2,2,0,0,0,.59,1.44,2,2,0,0,0,2.87,0,2,2,0,0,0,.59-1.44,2,2,0,0,0-.59-1.44,2,2,0,0,0-1.43-.59A2,2,0,0,0,90.76,1.82ZM92.15,2a2.07,2.07,0,0,1,.71.09.65.65,0,0,1,.4.65.57.57,0,0,1-.26.52,1.14,1.14,0,0,1-.37.12.67.67,0,0,1,.45.25.75.75,0,0,1,.14.41v.38a.7.7,0,0,0,0,.13l0,0h-.43V4.2a.64.64,0,0,0-.24-.59,1.07,1.07,0,0,0-.51-.08H91.7v1h-.46V2Zm.49.4a1.24,1.24,0,0,0-.55-.09H91.7V3.2h.41a1.26,1.26,0,0,0,.44-.05.4.4,0,0,0,.26-.41A.39.39,0,0,0,92.64,2.36Z" transform="translate(-0.5 -0.91)"/><path class="cls-3" d="M43.67,21.2H20.79V40.49H23.3V23.71H43.65v9.84a10.4,10.4,0,0,1-10.39,10.4H10.89A10.4,10.4,0,0,1,.5,33.54V11.3A10.39,10.39,0,0,1,10.89.91H33.26A10.39,10.39,0,0,1,43.65,11.3ZM23.18,18.13V3.58H20.67V18.13Z" transform="translate(-0.5 -0.91)"/><path class="cls-3" d="M46.64,11.3A10.39,10.39,0,0,1,57,.91H79.39A10.39,10.39,0,0,1,89.78,11.3V33.54a10.4,10.4,0,0,1-10.39,10.4H57a10.4,10.4,0,0,1-10.39-10.4ZM69.52,3.65H66.93v36.7h2.59Z" transform="translate(-0.5 -0.91)"/></svg>