<?xml version="1.0" encoding="utf-8"?>
<svg width="31.418457px" height="32px" viewBox="0 0 31.418457 32" version="1.1" xmlns:xlink="http://www.w3.org/1999/xlink" xmlns="http://www.w3.org/2000/svg">
  <g id="Group-7">
    <path d="M29.4592 13.1C29.8592 12 29.9592 10.9 29.8592 9.8C29.7592 8.7 29.3592 7.6 28.8592 6.6C27.9592 5.1 26.6592 3.9 25.1592 3.2C23.5592 2.5 21.8592 2.3 20.1592 2.7C19.3592 1.9 18.4592 1.2 17.4592 0.7C16.4592 0.2 15.2592 0 14.1592 0C12.4592 0 10.7592 0.5 9.35922 1.5C7.95922 2.5 6.95922 3.9 6.45922 5.5C5.25922 5.8 4.25922 6.3 3.25922 6.9C2.35922 7.6 1.65922 8.5 1.05922 9.4C0.159223 10.9 -0.140777 12.6 0.0592231 14.3C0.259223 16 0.959223 17.6 2.05922 18.9C1.65922 20 1.55922 21.1 1.65922 22.2C1.75922 23.3 2.15922 24.4 2.65922 25.4C3.55922 26.9 4.85922 28.1 6.35922 28.8C7.95922 29.5 9.65922 29.7 11.3592 29.3C12.1592 30.1 13.0592 30.8 14.0592 31.3C15.0592 31.8 16.2592 32 17.3592 32C19.0592 32 20.7592 31.5 22.1592 30.5C23.5592 29.5 24.5592 28.1 25.0592 26.5C26.1592 26.3 27.2592 25.8 28.1592 25.1C29.0592 24.4 29.8592 23.6 30.3592 22.6C31.2592 21.1 31.5592 19.4 31.3592 17.7C31.1592 16 30.5592 14.4 29.4592 13.1L29.4592 13.1ZM17.4592 29.9C15.8592 29.9 14.6592 29.4 13.5592 28.5C13.5592 28.5 13.6592 28.4 13.7592 28.4L20.1592 24.7C20.3592 24.6 20.4592 24.5 20.5592 24.3C20.6592 24.1 20.6592 24 20.6592 23.8L20.6592 14.8L23.3592 16.4L23.3592 23.8C23.4592 27.3 20.6592 29.9 17.4592 29.9L17.4592 29.9ZM4.55925 24.4C3.85925 23.2 3.55925 21.8 3.85925 20.4C3.85925 20.4 3.95925 20.5 4.05925 20.5L10.4592 24.2C10.6592 24.3 10.7592 24.3 10.9592 24.3C11.1592 24.3 11.3592 24.3 11.4592 24.2L19.2592 19.7L19.2592 22.8L12.7592 26.6C11.3592 27.4 9.75924 27.6 8.25924 27.2C6.65925 26.8 5.35925 25.8 4.55925 24.4L4.55925 24.4ZM2.85927 10.5C3.55927 9.29999 4.65927 8.39999 5.95927 7.89999L5.95927 8.09999L5.95927 15.5C5.95927 15.7 5.95927 15.9 6.05927 16C6.15927 16.2 6.25926 16.3 6.45927 16.4L14.2593 20.9L11.5593 22.5L5.15927 18.8C3.75927 18 2.75927 16.7 2.35927 15.2C1.95927 13.7 2.05927 11.9 2.85927 10.5L2.85927 10.5ZM24.9592 15.6L17.1592 11.1L19.8592 9.5L26.2592 13.2C27.2592 13.8 28.0592 14.6 28.5592 15.6C29.0592 16.6 29.3592 17.7 29.2592 18.9C29.1592 20 28.7592 21.1 28.0592 22C27.3592 22.9 26.4592 23.6 25.3592 24L25.3592 16.4C25.3592 16.2 25.3592 16 25.2592 15.9C25.2592 15.9 25.1592 15.7 24.9592 15.6L24.9592 15.6ZM27.6593 11.6C27.6593 11.6 27.5593 11.5 27.4593 11.5L21.0593 7.80001C20.8593 7.70001 20.7593 7.70001 20.5593 7.70001C20.3593 7.70001 20.1593 7.70001 20.0593 7.80001L12.2593 12.3L12.2593 9.20001L18.7593 5.40001C19.7593 4.80001 20.8593 4.60001 22.0593 4.60001C23.1593 4.60001 24.2593 5.00001 25.2593 5.70001C26.1593 6.40001 26.9593 7.30001 27.3593 8.30001C27.7593 9.30001 27.8593 10.5 27.6593 11.6L27.6593 11.6ZM10.8592 17.2L8.15918 15.6L8.15918 8.09999C8.15918 6.99999 8.45918 5.79999 9.05918 4.89999C9.65918 3.89999 10.5592 3.19999 11.5592 2.69999C12.5592 2.19999 13.7592 1.99999 14.8592 2.19999C15.9592 2.29999 17.0592 2.79999 17.9592 3.49999C17.9592 3.49999 17.8592 3.59999 17.7592 3.59999L11.3592 7.29999C11.1592 7.39999 11.0592 7.49999 10.9592 7.69999C10.8592 7.89999 10.8592 7.99999 10.8592 8.19999L10.8592 17.2ZM12.2593 14L15.7593 12L19.2593 14L19.2593 18L15.7593 20L12.2593 18L12.2593 14Z" id="Shape" fill="#42B029" fill-rule="evenodd" stroke="none" />
  </g>
</svg>